<svg xmlns="http://www.w3.org/2000/svg" width="522" height="97" viewBox="0 0 522 97">
  <g id="Grupo_1112075" data-name="Grupo 1112075" transform="translate(7530 -4397.5)">
    <g id="Grupo_1112074" data-name="Grupo 1112074" transform="translate(-7815 -2255)">
      <g id="Grupo_71129" data-name="Grupo 71129" transform="translate(0 -315.791)">
        <path id="Trazado_900943" data-name="Trazado 900943" d="M2.945,8.547l.07.977a2.951,2.951,0,0,1,2.43-1.133,2.453,2.453,0,0,1,2,.789,3.682,3.682,0,0,1,.672,2.359V17H5.859V11.594a1.465,1.465,0,0,0-.312-1.043,1.4,1.4,0,0,0-1.039-.324,1.553,1.553,0,0,0-1.43.813V17H.82V8.547Zm14.063,2.625H10.023V9.328h6.984Zm0,3.383H10.023V12.711h6.984ZM25.352,17H23.086V5h2.266Zm1.508-4.3a5.013,5.013,0,0,1,.484-2.242A3.546,3.546,0,0,1,28.738,8.93a4.069,4.069,0,0,1,2.113-.539,3.849,3.849,0,0,1,2.793,1.047,4.2,4.2,0,0,1,1.207,2.844l.016.578a4.418,4.418,0,0,1-1.086,3.121,3.775,3.775,0,0,1-2.914,1.176,3.793,3.793,0,0,1-2.918-1.172,4.5,4.5,0,0,1-1.09-3.187Zm2.258.164a3.151,3.151,0,0,0,.453,1.84,1.629,1.629,0,0,0,2.578.008,3.448,3.448,0,0,0,.461-2.012,3.12,3.12,0,0,0-.461-1.828,1.5,1.5,0,0,0-1.3-.648,1.475,1.475,0,0,0-1.281.645A3.506,3.506,0,0,0,29.117,12.859Zm6.813-.148a4.954,4.954,0,0,1,.926-3.133,3,3,0,0,1,2.5-1.187,2.631,2.631,0,0,1,2.164.953l.094-.8h2.047v8.172a3.613,3.613,0,0,1-.5,1.93,3.236,3.236,0,0,1-1.418,1.25,4.985,4.985,0,0,1-2.141.43,4.635,4.635,0,0,1-1.812-.371A3.217,3.217,0,0,1,36.445,19l1-1.375a2.645,2.645,0,0,0,2.047.945,1.936,1.936,0,0,0,1.4-.48,1.8,1.8,0,0,0,.5-1.363v-.453a2.612,2.612,0,0,1-2.055.883,2.992,2.992,0,0,1-2.465-1.191,4.953,4.953,0,0,1-.941-3.16Zm2.258.164a3.076,3.076,0,0,0,.461,1.8,1.467,1.467,0,0,0,1.266.652,1.568,1.568,0,0,0,1.477-.773V11a1.565,1.565,0,0,0-1.461-.773,1.476,1.476,0,0,0-1.277.664A3.467,3.467,0,0,0,38.188,12.875Zm11.289-.5a11.99,11.99,0,0,1,.477-3.406,8.989,8.989,0,0,1,1.406-2.863,5.251,5.251,0,0,1,2.016-1.73l.438,1.219A5.438,5.438,0,0,0,52.031,8.2a12.082,12.082,0,0,0-.641,4.125v.242a12.313,12.313,0,0,0,.633,4.141,5.544,5.544,0,0,0,1.789,2.648l-.437,1.2a5.253,5.253,0,0,1-1.98-1.684,8.838,8.838,0,0,1-1.4-2.785,11.918,11.918,0,0,1-.516-3.3ZM59.5,14.18l2.578-8.555h2.609L60.727,17H58.281L54.336,5.625h2.6Zm13.1-1.828H68.1V17H65.758V5.625h7.406v1.9H68.1v2.938h4.5Zm6.469,5.625h-1.68L81.578,5.625h1.68Zm13.6-3.8L95.25,5.625h2.609L93.9,17H91.453L87.508,5.625h2.6Zm12.094.477h-4.109L99.875,17H97.383l4.234-11.375h2.172L108.047,17h-2.492Zm-3.477-1.9h2.844L102.7,8.5Zm11.563-.2a11.377,11.377,0,0,1-.508,3.4,9.225,9.225,0,0,1-1.461,2.883,5.263,5.263,0,0,1-2.039,1.719l-.437-1.2a5.494,5.494,0,0,0,1.75-2.578,11.939,11.939,0,0,0,.664-4.008v-.414a12.209,12.209,0,0,0-.637-4.117,5.727,5.727,0,0,0-1.777-2.672l.438-1.2a5.265,5.265,0,0,1,2,1.672,9.106,9.106,0,0,1,1.461,2.82,11.3,11.3,0,0,1,.543,3.336Z" transform="translate(307.5 6977.345)" fill="#12263f"/>
        <path id="Trazado_900944" data-name="Trazado 900944" d="M3.359,15.117H8.336V17H1.016V5.625H3.359ZM9.18,12.7a5.013,5.013,0,0,1,.484-2.242A3.546,3.546,0,0,1,11.059,8.93a4.069,4.069,0,0,1,2.113-.539,3.849,3.849,0,0,1,2.793,1.047,4.2,4.2,0,0,1,1.207,2.844l.016.578A4.418,4.418,0,0,1,16.1,15.98a3.775,3.775,0,0,1-2.914,1.176,3.793,3.793,0,0,1-2.918-1.172A4.5,4.5,0,0,1,9.18,12.8Zm2.258.164a3.151,3.151,0,0,0,.453,1.84,1.629,1.629,0,0,0,2.578.008A3.448,3.448,0,0,0,14.93,12.7a3.12,3.12,0,0,0-.461-1.828,1.5,1.5,0,0,0-1.3-.648,1.475,1.475,0,0,0-1.281.645A3.506,3.506,0,0,0,11.438,12.859Zm6.813-.148a4.954,4.954,0,0,1,.926-3.133,3,3,0,0,1,2.5-1.187,2.631,2.631,0,0,1,2.164.953l.094-.8h2.047v8.172a3.613,3.613,0,0,1-.5,1.93,3.236,3.236,0,0,1-1.418,1.25,4.985,4.985,0,0,1-2.141.43,4.635,4.635,0,0,1-1.812-.371A3.217,3.217,0,0,1,18.766,19l1-1.375a2.645,2.645,0,0,0,2.047.945,1.936,1.936,0,0,0,1.4-.48,1.8,1.8,0,0,0,.5-1.363v-.453a2.612,2.612,0,0,1-2.055.883,2.992,2.992,0,0,1-2.465-1.191,4.953,4.953,0,0,1-.941-3.16Zm2.258.164a3.076,3.076,0,0,0,.461,1.8,1.467,1.467,0,0,0,1.266.652,1.568,1.568,0,0,0,1.477-.773V11a1.565,1.565,0,0,0-1.461-.773,1.476,1.476,0,0,0-1.277.664A3.467,3.467,0,0,0,20.508,12.875Zm11.289-.5a11.99,11.99,0,0,1,.477-3.406A8.989,8.989,0,0,1,33.68,6.105,5.251,5.251,0,0,1,35.7,4.375l.438,1.219A5.438,5.438,0,0,0,34.352,8.2a12.082,12.082,0,0,0-.641,4.125v.242a12.313,12.313,0,0,0,.633,4.141,5.544,5.544,0,0,0,1.789,2.648l-.437,1.2a5.253,5.253,0,0,1-1.98-1.684,8.838,8.838,0,0,1-1.4-2.785,11.918,11.918,0,0,1-.516-3.3ZM42.7,17H40.445V8.3l-2.7.836V7.3l4.711-1.687H42.7Zm8.344-6.367h2.82v2.039h-2.82v3.188H48.9V12.672H46.07V10.633H48.9V7.578h2.148ZM57.609,17H55.344V8.547h2.266Zm-2.4-10.641a1.112,1.112,0,0,1,.34-.836,1.465,1.465,0,0,1,1.848,0,1.105,1.105,0,0,1,.344.836,1.108,1.108,0,0,1-.348.844,1.448,1.448,0,0,1-1.836,0A1.108,1.108,0,0,1,55.211,6.359Zm8.148,6.2a11.377,11.377,0,0,1-.508,3.4,9.225,9.225,0,0,1-1.461,2.883,5.264,5.264,0,0,1-2.039,1.719l-.437-1.2a5.494,5.494,0,0,0,1.75-2.578,11.939,11.939,0,0,0,.664-4.008v-.414a12.208,12.208,0,0,0-.637-4.117A5.727,5.727,0,0,0,58.914,5.57l.438-1.2a5.265,5.265,0,0,1,2,1.672,9.106,9.106,0,0,1,1.461,2.82,11.3,11.3,0,0,1,.543,3.336Z" transform="translate(324.5 7007.237)" fill="#12263f"/>
        <g id="Rectángulo_31917" data-name="Rectángulo 31917" transform="translate(285 6969.791)" fill="none" stroke="#a66d58" stroke-width="1">
          <rect width="149" height="65.895" rx="9" stroke="none"/>
          <rect x="0.5" y="0.5" width="148" height="64.895" rx="8.5" fill="none"/>
        </g>
        <path id="Trazado_900948" data-name="Trazado 900948" d="M2.945,8.547l.07.977a2.951,2.951,0,0,1,2.43-1.133,2.453,2.453,0,0,1,2,.789,3.682,3.682,0,0,1,.672,2.359V17H5.859V11.594a1.465,1.465,0,0,0-.312-1.043,1.4,1.4,0,0,0-1.039-.324,1.553,1.553,0,0,0-1.43.813V17H.82V8.547Zm18.047,2.625H14.008V9.328h6.984Zm0,3.383H14.008V12.711h6.984ZM34.656,17h-7.8V15.453l3.68-3.922a9.078,9.078,0,0,0,1.121-1.445,2.322,2.322,0,0,0,.363-1.172,1.738,1.738,0,0,0-.383-1.191,1.382,1.382,0,0,0-1.094-.434,1.49,1.49,0,0,0-1.207.527A2.089,2.089,0,0,0,28.9,9.2H26.633a3.729,3.729,0,0,1,.5-1.9,3.5,3.5,0,0,1,1.4-1.348,4.262,4.262,0,0,1,2.055-.488,4.036,4.036,0,0,1,2.73.844A2.985,2.985,0,0,1,34.289,8.7a3.825,3.825,0,0,1-.437,1.719,9.551,9.551,0,0,1-1.5,2.039L29.766,15.18h4.891Zm9.18,0h-7.8V15.453l3.68-3.922a9.078,9.078,0,0,0,1.121-1.445A2.322,2.322,0,0,0,41.2,8.914a1.738,1.738,0,0,0-.383-1.191,1.382,1.382,0,0,0-1.094-.434,1.49,1.49,0,0,0-1.207.527A2.089,2.089,0,0,0,38.078,9.2H35.813a3.729,3.729,0,0,1,.5-1.9,3.5,3.5,0,0,1,1.4-1.348,4.262,4.262,0,0,1,2.055-.488,4.036,4.036,0,0,1,2.73.844A2.985,2.985,0,0,1,43.469,8.7a3.825,3.825,0,0,1-.437,1.719,9.551,9.551,0,0,1-1.5,2.039L38.945,15.18h4.891Zm7.578-8.453.07.945a2.971,2.971,0,0,1,2.43-1.1A2.255,2.255,0,0,1,56.156,9.68,2.9,2.9,0,0,1,58.7,8.391a2.521,2.521,0,0,1,2.047.8,3.681,3.681,0,0,1,.672,2.41V17H59.148V11.609a1.61,1.61,0,0,0-.281-1.051,1.246,1.246,0,0,0-.992-.332,1.409,1.409,0,0,0-1.406.969l.008,5.8H54.219V11.617a1.59,1.59,0,0,0-.289-1.062,1.259,1.259,0,0,0-.984-.328,1.463,1.463,0,0,0-1.391.8V17H49.3V8.547Zm15.625,8.609a4.15,4.15,0,0,1-3.027-1.141,4.054,4.054,0,0,1-1.168-3.039v-.219a5.106,5.106,0,0,1,.492-2.277A3.612,3.612,0,0,1,64.73,8.934a3.914,3.914,0,0,1,2.059-.543,3.508,3.508,0,0,1,2.73,1.094,4.444,4.444,0,0,1,1,3.1v.922H65.133a2.1,2.1,0,0,0,.66,1.328,2,2,0,0,0,1.395.5,2.437,2.437,0,0,0,2.039-.945l1.109,1.242a3.389,3.389,0,0,1-1.375,1.121A4.511,4.511,0,0,1,67.039,17.156Zm-.258-6.937a1.414,1.414,0,0,0-1.09.453,2.341,2.341,0,0,0-.535,1.3H68.3v-.18a1.669,1.669,0,0,0-.406-1.16A1.459,1.459,0,0,0,66.781,10.219Zm9.594,4.445a.727.727,0,0,0-.41-.652,4.659,4.659,0,0,0-1.316-.426q-3.016-.633-3.016-2.562a2.323,2.323,0,0,1,.934-1.879,3.766,3.766,0,0,1,2.441-.754,4.053,4.053,0,0,1,2.574.758,2.388,2.388,0,0,1,.965,1.969H76.289a1.092,1.092,0,0,0-.312-.8A1.322,1.322,0,0,0,75,10a1.351,1.351,0,0,0-.883.258.814.814,0,0,0-.312.656.7.7,0,0,0,.355.605,3.657,3.657,0,0,0,1.2.4,9.8,9.8,0,0,1,1.422.379A2.336,2.336,0,0,1,78.57,14.57a2.2,2.2,0,0,1-.992,1.871,4.28,4.28,0,0,1-2.562.715,4.47,4.47,0,0,1-1.887-.379,3.166,3.166,0,0,1-1.293-1.039,2.414,2.414,0,0,1-.469-1.426h2.141a1.179,1.179,0,0,0,.445.922,1.766,1.766,0,0,0,1.109.32,1.635,1.635,0,0,0,.98-.246A.766.766,0,0,0,76.375,14.664Zm7.539,2.492a4.15,4.15,0,0,1-3.027-1.141,4.054,4.054,0,0,1-1.168-3.039v-.219a5.106,5.106,0,0,1,.492-2.277,3.612,3.612,0,0,1,1.395-1.547,3.914,3.914,0,0,1,2.059-.543,3.508,3.508,0,0,1,2.73,1.094,4.444,4.444,0,0,1,1,3.1v.922H82.008a2.1,2.1,0,0,0,.66,1.328,2,2,0,0,0,1.395.5,2.437,2.437,0,0,0,2.039-.945l1.109,1.242a3.389,3.389,0,0,1-1.375,1.121A4.511,4.511,0,0,1,83.914,17.156Zm-.258-6.937a1.414,1.414,0,0,0-1.09.453,2.341,2.341,0,0,0-.535,1.3h3.141v-.18a1.669,1.669,0,0,0-.406-1.16A1.459,1.459,0,0,0,83.656,10.219Zm9.594,4.445a.727.727,0,0,0-.41-.652,4.659,4.659,0,0,0-1.316-.426q-3.016-.633-3.016-2.562a2.323,2.323,0,0,1,.934-1.879,3.766,3.766,0,0,1,2.441-.754,4.053,4.053,0,0,1,2.574.758,2.388,2.388,0,0,1,.965,1.969H93.164a1.092,1.092,0,0,0-.312-.8A1.322,1.322,0,0,0,91.875,10a1.351,1.351,0,0,0-.883.258.814.814,0,0,0-.312.656.7.7,0,0,0,.355.605,3.657,3.657,0,0,0,1.2.4,9.8,9.8,0,0,1,1.422.379,2.336,2.336,0,0,1,1.789,2.273,2.2,2.2,0,0,1-.992,1.871,4.28,4.28,0,0,1-2.562.715A4.47,4.47,0,0,1,90,16.777a3.166,3.166,0,0,1-1.293-1.039,2.414,2.414,0,0,1-.469-1.426h2.141a1.179,1.179,0,0,0,.445.922,1.766,1.766,0,0,0,1.109.32,1.635,1.635,0,0,0,.98-.246A.766.766,0,0,0,93.25,14.664Z" transform="translate(495 7042.291)" fill="#12263f"/>
        <line id="Línea_401" data-name="Línea 401" y2="97" transform="translate(473 6968.291)" fill="none" stroke="#a66d58" stroke-width="2" stroke-dasharray="2"/>
        <line id="Línea_402" data-name="Línea 402" x2="104" transform="translate(307.5 7002.791)" fill="none" stroke="#a66d58" stroke-width="1"/>
        <path id="Trazado_900945" data-name="Trazado 900945" d="M6.172,14.008a1.43,1.43,0,0,0-.355-1.02,3.222,3.222,0,0,0-1.207-.7,14.24,14.24,0,0,1-1.469-.637,4.679,4.679,0,0,1-1.059-.727,2.919,2.919,0,0,1-.687-.965,3.238,3.238,0,0,1-.246-1.32,2.93,2.93,0,0,1,.844-2.164,3.56,3.56,0,0,1,2.242-.984V3.82h1.25v1.7A3.263,3.263,0,0,1,7.648,6.668a3.8,3.8,0,0,1,.781,2.48H6.172a2.156,2.156,0,0,0-.387-1.4A1.278,1.278,0,0,0,4.75,7.281a1.317,1.317,0,0,0-.992.363,1.383,1.383,0,0,0-.352,1A1.321,1.321,0,0,0,3.75,9.6a3.788,3.788,0,0,0,1.277.734,14.187,14.187,0,0,1,1.535.707,4.431,4.431,0,0,1,1.016.75,2.9,2.9,0,0,1,.633.953,3.277,3.277,0,0,1,.219,1.246A2.917,2.917,0,0,1,7.6,16.148a3.632,3.632,0,0,1-2.281.977V18.68H4.078V17.133A3.758,3.758,0,0,1,1.6,16,3.664,3.664,0,0,1,.719,13.43H2.977a2.077,2.077,0,0,0,.441,1.426,1.61,1.61,0,0,0,1.27.5,1.551,1.551,0,0,0,1.086-.363A1.261,1.261,0,0,0,6.172,14.008Zm10.352,1.109H21.5V17H14.18V5.625h2.344Zm5.82-2.422a5.013,5.013,0,0,1,.484-2.242A3.546,3.546,0,0,1,24.223,8.93a4.069,4.069,0,0,1,2.113-.539,3.849,3.849,0,0,1,2.793,1.047,4.2,4.2,0,0,1,1.207,2.844l.016.578a4.418,4.418,0,0,1-1.086,3.121,3.775,3.775,0,0,1-2.914,1.176,3.793,3.793,0,0,1-2.918-1.172,4.5,4.5,0,0,1-1.09-3.187Zm2.258.164a3.151,3.151,0,0,0,.453,1.84,1.629,1.629,0,0,0,2.578.008,3.448,3.448,0,0,0,.461-2.012,3.12,3.12,0,0,0-.461-1.828,1.5,1.5,0,0,0-1.3-.648,1.475,1.475,0,0,0-1.281.645A3.506,3.506,0,0,0,24.6,12.859Zm6.813-.148a4.954,4.954,0,0,1,.926-3.133,3,3,0,0,1,2.5-1.187A2.631,2.631,0,0,1,37,9.344l.094-.8h2.047v8.172a3.613,3.613,0,0,1-.5,1.93,3.236,3.236,0,0,1-1.418,1.25,4.985,4.985,0,0,1-2.141.43,4.635,4.635,0,0,1-1.812-.371A3.217,3.217,0,0,1,31.93,19l1-1.375a2.645,2.645,0,0,0,2.047.945,1.936,1.936,0,0,0,1.4-.48,1.8,1.8,0,0,0,.5-1.363v-.453a2.612,2.612,0,0,1-2.055.883,2.992,2.992,0,0,1-2.465-1.191,4.953,4.953,0,0,1-.941-3.16Zm2.258.164a3.076,3.076,0,0,0,.461,1.8,1.467,1.467,0,0,0,1.266.652,1.568,1.568,0,0,0,1.477-.773V11a1.565,1.565,0,0,0-1.461-.773,1.476,1.476,0,0,0-1.277.664A3.467,3.467,0,0,0,33.672,12.875Zm11.289-.5a11.99,11.99,0,0,1,.477-3.406,8.989,8.989,0,0,1,1.406-2.863,5.251,5.251,0,0,1,2.016-1.73L49.3,5.594A5.438,5.438,0,0,0,47.516,8.2a12.082,12.082,0,0,0-.641,4.125v.242a12.313,12.313,0,0,0,.633,4.141A5.544,5.544,0,0,0,49.3,19.359l-.437,1.2a5.253,5.253,0,0,1-1.98-1.684,8.838,8.838,0,0,1-1.4-2.785,11.918,11.918,0,0,1-.516-3.3Zm10.82,1.633a1.43,1.43,0,0,0-.355-1.02,3.222,3.222,0,0,0-1.207-.7,14.24,14.24,0,0,1-1.469-.637,4.679,4.679,0,0,1-1.059-.727A2.919,2.919,0,0,1,51,9.961a3.238,3.238,0,0,1-.246-1.32A2.93,2.93,0,0,1,51.6,6.477a3.56,3.56,0,0,1,2.242-.984V3.82h1.25v1.7a3.263,3.263,0,0,1,2.164,1.152,3.8,3.8,0,0,1,.781,2.48H55.781a2.156,2.156,0,0,0-.387-1.4,1.278,1.278,0,0,0-1.035-.465,1.317,1.317,0,0,0-.992.363,1.383,1.383,0,0,0-.352,1,1.321,1.321,0,0,0,.344.953,3.788,3.788,0,0,0,1.277.734,14.187,14.187,0,0,1,1.535.707,4.431,4.431,0,0,1,1.016.75,2.9,2.9,0,0,1,.633.953,3.277,3.277,0,0,1,.219,1.246,2.917,2.917,0,0,1-.828,2.156,3.632,3.632,0,0,1-2.281.977V18.68H53.688V17.133A3.758,3.758,0,0,1,51.207,16a3.664,3.664,0,0,1-.879-2.566h2.258a2.077,2.077,0,0,0,.441,1.426,1.61,1.61,0,0,0,1.27.5,1.551,1.551,0,0,0,1.086-.363A1.261,1.261,0,0,0,55.781,14.008Zm10.063-3.7h1.2a1.7,1.7,0,0,0,1.273-.43,1.575,1.575,0,0,0,.414-1.141,1.392,1.392,0,0,0-.41-1.07A1.59,1.59,0,0,0,67.2,7.289a1.666,1.666,0,0,0-1.086.355,1.137,1.137,0,0,0-.437.926H63.414a2.777,2.777,0,0,1,.48-1.6,3.2,3.2,0,0,1,1.344-1.105,4.485,4.485,0,0,1,1.9-.4,4.253,4.253,0,0,1,2.828.863,2.945,2.945,0,0,1,1.023,2.379,2.394,2.394,0,0,1-.477,1.438,3.1,3.1,0,0,1-1.25,1.008A2.826,2.826,0,0,1,70.7,12.188a2.8,2.8,0,0,1,.473,1.625,2.994,2.994,0,0,1-1.105,2.43,4.445,4.445,0,0,1-2.926.914,4.214,4.214,0,0,1-2.785-.9,2.934,2.934,0,0,1-1.082-2.375h2.258a1.308,1.308,0,0,0,.48,1.047,2,2,0,0,0,2.445-.02,1.47,1.47,0,0,0,.457-1.129q0-1.7-1.875-1.7h-1.2Zm7.094,5.578a1.137,1.137,0,0,1,.363-.875,1.412,1.412,0,0,1,1.828,0,1.137,1.137,0,0,1,.363.875,1.121,1.121,0,0,1-.359.863,1.435,1.435,0,0,1-1.836,0A1.121,1.121,0,0,1,72.938,15.891Zm11.117-3.172h1.289v1.82H84.055V17H81.8V14.539H77.133l-.1-1.422,4.742-7.492h2.281Zm-4.773,0H81.8V8.7l-.148.258Zm13.953,0h1.289v1.82H93.234V17H90.977V14.539H86.313l-.1-1.422,4.742-7.492h2.281Zm-4.773,0h2.516V8.7l-.148.258Zm9.57-2.406h1.2a1.7,1.7,0,0,0,1.273-.43,1.575,1.575,0,0,0,.414-1.141,1.392,1.392,0,0,0-.41-1.07,1.59,1.59,0,0,0-1.129-.383,1.666,1.666,0,0,0-1.086.355,1.137,1.137,0,0,0-.437.926H95.6a2.777,2.777,0,0,1,.48-1.6,3.2,3.2,0,0,1,1.344-1.105,4.485,4.485,0,0,1,1.9-.4,4.253,4.253,0,0,1,2.828.863,2.945,2.945,0,0,1,1.023,2.379,2.394,2.394,0,0,1-.477,1.438,3.1,3.1,0,0,1-1.25,1.008,2.826,2.826,0,0,1,1.434,1.031,2.8,2.8,0,0,1,.473,1.625,2.994,2.994,0,0,1-1.105,2.43,4.445,4.445,0,0,1-2.926.914,4.214,4.214,0,0,1-2.785-.9,2.934,2.934,0,0,1-1.082-2.375h2.258a1.308,1.308,0,0,0,.48,1.047,2,2,0,0,0,2.445-.02,1.47,1.47,0,0,0,.457-1.129q0-1.7-1.875-1.7h-1.2Zm7.094,5.578a1.137,1.137,0,0,1,.363-.875,1.412,1.412,0,0,1,1.828,0,1.137,1.137,0,0,1,.363.875,1.121,1.121,0,0,1-.359.863,1.435,1.435,0,0,1-1.836,0A1.121,1.121,0,0,1,105.125,15.891ZM115.047,17h-2.258V8.3l-2.7.836V7.3L114.8,5.609h.242Zm10.375-4.281h1.289v1.82h-1.289V17h-2.258V14.539H118.5l-.1-1.422,4.742-7.492h2.281Zm-4.773,0h2.516V8.7l-.148.258Zm9.57-2.406h1.2a1.7,1.7,0,0,0,1.273-.43,1.574,1.574,0,0,0,.414-1.141,1.392,1.392,0,0,0-.41-1.07,1.59,1.59,0,0,0-1.129-.383,1.666,1.666,0,0,0-1.086.355,1.137,1.137,0,0,0-.437.926h-2.258a2.777,2.777,0,0,1,.48-1.6,3.2,3.2,0,0,1,1.344-1.105,4.485,4.485,0,0,1,1.9-.4,4.253,4.253,0,0,1,2.828.863,2.945,2.945,0,0,1,1.023,2.379,2.394,2.394,0,0,1-.477,1.438,3.1,3.1,0,0,1-1.25,1.008,2.826,2.826,0,0,1,1.434,1.031,2.8,2.8,0,0,1,.473,1.625,2.994,2.994,0,0,1-1.105,2.43,4.445,4.445,0,0,1-2.926.914,4.214,4.214,0,0,1-2.785-.9,2.934,2.934,0,0,1-1.082-2.375h2.258a1.308,1.308,0,0,0,.48,1.047,2,2,0,0,0,2.445-.02,1.47,1.47,0,0,0,.457-1.129q0-1.7-1.875-1.7h-1.2Zm11.672,7.664h-1.68L144.4,5.625h1.68Zm14.555-3.969a1.43,1.43,0,0,0-.355-1.02,3.222,3.222,0,0,0-1.207-.7,14.24,14.24,0,0,1-1.469-.637,4.679,4.679,0,0,1-1.059-.727,2.919,2.919,0,0,1-.687-.965,3.238,3.238,0,0,1-.246-1.32,2.93,2.93,0,0,1,.844-2.164,3.56,3.56,0,0,1,2.242-.984V3.82h1.25v1.7a3.263,3.263,0,0,1,2.164,1.152,3.8,3.8,0,0,1,.781,2.48h-2.258a2.156,2.156,0,0,0-.387-1.4,1.278,1.278,0,0,0-1.035-.465,1.317,1.317,0,0,0-.992.363,1.383,1.383,0,0,0-.352,1,1.321,1.321,0,0,0,.344.953,3.788,3.788,0,0,0,1.277.734,14.188,14.188,0,0,1,1.535.707,4.431,4.431,0,0,1,1.016.75,2.9,2.9,0,0,1,.633.953,3.277,3.277,0,0,1,.219,1.246,2.917,2.917,0,0,1-.828,2.156,3.632,3.632,0,0,1-2.281.977V18.68h-1.242V17.133A3.758,3.758,0,0,1,151.871,16a3.664,3.664,0,0,1-.879-2.566h2.258a2.077,2.077,0,0,0,.441,1.426,1.61,1.61,0,0,0,1.27.5,1.551,1.551,0,0,0,1.086-.363A1.261,1.261,0,0,0,156.445,14.008ZM172.008,17h-7.8V15.453l3.68-3.922a9.078,9.078,0,0,0,1.121-1.445,2.322,2.322,0,0,0,.363-1.172,1.738,1.738,0,0,0-.383-1.191,1.382,1.382,0,0,0-1.094-.434,1.49,1.49,0,0,0-1.207.527A2.089,2.089,0,0,0,166.25,9.2h-2.266a3.729,3.729,0,0,1,.5-1.9,3.5,3.5,0,0,1,1.4-1.348,4.262,4.262,0,0,1,2.055-.488,4.036,4.036,0,0,1,2.73.844,2.985,2.985,0,0,1,.973,2.383,3.825,3.825,0,0,1-.437,1.719,9.552,9.552,0,0,1-1.5,2.039l-2.586,2.727h4.891Zm1.594-1.109a1.137,1.137,0,0,1,.363-.875,1.412,1.412,0,0,1,1.828,0,1.137,1.137,0,0,1,.363.875,1.121,1.121,0,0,1-.359.863,1.435,1.435,0,0,1-1.836,0A1.121,1.121,0,0,1,173.6,15.891ZM185.7,12.3a5.762,5.762,0,0,1-.977,3.609,3.9,3.9,0,0,1-5.7.023,5.594,5.594,0,0,1-1.008-3.516V10.32A5.687,5.687,0,0,1,179,6.7a3.91,3.91,0,0,1,5.691-.012A5.576,5.576,0,0,1,185.7,10.2ZM183.438,10a4.158,4.158,0,0,0-.387-2.059,1.307,1.307,0,0,0-1.207-.645,1.284,1.284,0,0,0-1.176.613,3.891,3.891,0,0,0-.4,1.918v2.766a4.364,4.364,0,0,0,.379,2.066,1.29,1.29,0,0,0,1.215.676,1.268,1.268,0,0,0,1.2-.648,4.26,4.26,0,0,0,.383-1.984Zm11.438,2.3a5.762,5.762,0,0,1-.977,3.609,3.9,3.9,0,0,1-5.7.023,5.594,5.594,0,0,1-1.008-3.516V10.32a5.687,5.687,0,0,1,.988-3.617,3.91,3.91,0,0,1,5.691-.012,5.576,5.576,0,0,1,1.008,3.512ZM192.617,10a4.158,4.158,0,0,0-.387-2.059,1.307,1.307,0,0,0-1.207-.645,1.284,1.284,0,0,0-1.176.613,3.891,3.891,0,0,0-.4,1.918v2.766a4.364,4.364,0,0,0,.379,2.066,1.29,1.29,0,0,0,1.215.676,1.268,1.268,0,0,0,1.2-.648,4.26,4.26,0,0,0,.383-1.984Zm11.438,2.3a5.762,5.762,0,0,1-.977,3.609,3.9,3.9,0,0,1-5.7.023,5.594,5.594,0,0,1-1.008-3.516V10.32a5.687,5.687,0,0,1,.988-3.617,3.91,3.91,0,0,1,5.691-.012,5.576,5.576,0,0,1,1.008,3.512ZM201.8,10a4.158,4.158,0,0,0-.387-2.059A1.307,1.307,0,0,0,200.2,7.3a1.284,1.284,0,0,0-1.176.613,3.891,3.891,0,0,0-.4,1.918v2.766A4.364,4.364,0,0,0,199,14.66a1.29,1.29,0,0,0,1.215.676,1.268,1.268,0,0,0,1.2-.648A4.26,4.26,0,0,0,201.8,12.7Zm3.992,5.891a1.137,1.137,0,0,1,.363-.875,1.412,1.412,0,0,1,1.828,0,1.137,1.137,0,0,1,.363.875,1.121,1.121,0,0,1-.359.863,1.435,1.435,0,0,1-1.836,0A1.121,1.121,0,0,1,205.789,15.891ZM217.883,12.3a5.762,5.762,0,0,1-.977,3.609,3.9,3.9,0,0,1-5.7.023,5.594,5.594,0,0,1-1.008-3.516V10.32a5.687,5.687,0,0,1,.988-3.617,3.91,3.91,0,0,1,5.691-.012,5.576,5.576,0,0,1,1.008,3.512ZM215.625,10a4.158,4.158,0,0,0-.387-2.059,1.307,1.307,0,0,0-1.207-.645,1.284,1.284,0,0,0-1.176.613,3.891,3.891,0,0,0-.4,1.918v2.766a4.364,4.364,0,0,0,.379,2.066,1.29,1.29,0,0,0,1.215.676,1.268,1.268,0,0,0,1.2-.648,4.26,4.26,0,0,0,.383-1.984Zm11.438,2.3a5.762,5.762,0,0,1-.977,3.609,3.9,3.9,0,0,1-5.7.023,5.594,5.594,0,0,1-1.008-3.516V10.32a5.687,5.687,0,0,1,.988-3.617,3.91,3.91,0,0,1,5.691-.012,5.576,5.576,0,0,1,1.008,3.512ZM224.8,10a4.158,4.158,0,0,0-.387-2.059,1.307,1.307,0,0,0-1.207-.645,1.284,1.284,0,0,0-1.176.613,3.891,3.891,0,0,0-.4,1.918v2.766a4.364,4.364,0,0,0,.379,2.066,1.29,1.29,0,0,0,1.215.676,1.268,1.268,0,0,0,1.2-.648A4.26,4.26,0,0,0,224.8,12.7Zm11.438,2.3a5.762,5.762,0,0,1-.977,3.609,3.9,3.9,0,0,1-5.7.023,5.594,5.594,0,0,1-1.008-3.516V10.32a5.687,5.687,0,0,1,.988-3.617,3.91,3.91,0,0,1,5.691-.012,5.576,5.576,0,0,1,1.008,3.512ZM233.984,10a4.158,4.158,0,0,0-.387-2.059,1.307,1.307,0,0,0-1.207-.645,1.284,1.284,0,0,0-1.176.613,3.891,3.891,0,0,0-.4,1.918v2.766a4.364,4.364,0,0,0,.379,2.066,1.29,1.29,0,0,0,1.215.676,1.268,1.268,0,0,0,1.2-.648,4.26,4.26,0,0,0,.383-1.984Zm7.766,2.555a11.377,11.377,0,0,1-.508,3.4,9.225,9.225,0,0,1-1.461,2.883,5.264,5.264,0,0,1-2.039,1.719l-.437-1.2a5.494,5.494,0,0,0,1.75-2.578,11.939,11.939,0,0,0,.664-4.008v-.414a12.208,12.208,0,0,0-.637-4.117A5.727,5.727,0,0,0,237.3,5.57l.438-1.2a5.265,5.265,0,0,1,2,1.672,9.106,9.106,0,0,1,1.461,2.82,11.3,11.3,0,0,1,.543,3.336Z" transform="translate(542.5 6969.791)" fill="#12263f"/>
        <path id="Trazado_900947" data-name="Trazado 900947" d="M2.945,8.547l.07.977a2.951,2.951,0,0,1,2.43-1.133,2.453,2.453,0,0,1,2,.789,3.682,3.682,0,0,1,.672,2.359V17H5.859V11.594a1.465,1.465,0,0,0-.312-1.043,1.4,1.4,0,0,0-1.039-.324,1.553,1.553,0,0,0-1.43.813V17H.82V8.547Zm14.063,2.625H10.023V9.328h6.984Zm0,3.383H10.023V12.711h6.984Z" transform="translate(495 6986.791)" fill="#12263f"/>
        <path id="Trazado_900946" data-name="Trazado 900946" d="M3.359,15.117H8.336V17H1.016V5.625H3.359ZM9.18,12.7a5.013,5.013,0,0,1,.484-2.242A3.546,3.546,0,0,1,11.059,8.93a4.069,4.069,0,0,1,2.113-.539,3.849,3.849,0,0,1,2.793,1.047,4.2,4.2,0,0,1,1.207,2.844l.016.578A4.418,4.418,0,0,1,16.1,15.98a3.775,3.775,0,0,1-2.914,1.176,3.793,3.793,0,0,1-2.918-1.172A4.5,4.5,0,0,1,9.18,12.8Zm2.258.164a3.151,3.151,0,0,0,.453,1.84,1.629,1.629,0,0,0,2.578.008A3.448,3.448,0,0,0,14.93,12.7a3.12,3.12,0,0,0-.461-1.828,1.5,1.5,0,0,0-1.3-.648,1.475,1.475,0,0,0-1.281.645A3.506,3.506,0,0,0,11.438,12.859Zm6.813-.148a4.954,4.954,0,0,1,.926-3.133,3,3,0,0,1,2.5-1.187,2.631,2.631,0,0,1,2.164.953l.094-.8h2.047v8.172a3.613,3.613,0,0,1-.5,1.93,3.236,3.236,0,0,1-1.418,1.25,4.985,4.985,0,0,1-2.141.43,4.635,4.635,0,0,1-1.812-.371A3.217,3.217,0,0,1,18.766,19l1-1.375a2.645,2.645,0,0,0,2.047.945,1.936,1.936,0,0,0,1.4-.48,1.8,1.8,0,0,0,.5-1.363v-.453a2.612,2.612,0,0,1-2.055.883,2.992,2.992,0,0,1-2.465-1.191,4.953,4.953,0,0,1-.941-3.16Zm2.258.164a3.076,3.076,0,0,0,.461,1.8,1.467,1.467,0,0,0,1.266.652,1.568,1.568,0,0,0,1.477-.773V11a1.565,1.565,0,0,0-1.461-.773,1.476,1.476,0,0,0-1.277.664A3.467,3.467,0,0,0,20.508,12.875Zm11.289-.5a11.99,11.99,0,0,1,.477-3.406A8.989,8.989,0,0,1,33.68,6.105,5.251,5.251,0,0,1,35.7,4.375l.438,1.219A5.438,5.438,0,0,0,34.352,8.2a12.082,12.082,0,0,0-.641,4.125v.242a12.313,12.313,0,0,0,.633,4.141,5.544,5.544,0,0,0,1.789,2.648l-.437,1.2a5.253,5.253,0,0,1-1.98-1.684,8.838,8.838,0,0,1-1.4-2.785,11.918,11.918,0,0,1-.516-3.3ZM42.7,17H40.445V8.3l-2.7.836V7.3l4.711-1.687H42.7Zm12.328-6.367h2.82v2.039h-2.82v3.188H52.883V12.672H50.055V10.633h2.828V7.578h2.148ZM70.758,12.3a5.763,5.763,0,0,1-.977,3.609,3.9,3.9,0,0,1-5.7.023,5.594,5.594,0,0,1-1.008-3.516V10.32A5.687,5.687,0,0,1,64.059,6.7a3.91,3.91,0,0,1,5.691-.012A5.576,5.576,0,0,1,70.758,10.2ZM68.5,10a4.158,4.158,0,0,0-.387-2.059A1.307,1.307,0,0,0,66.906,7.3a1.284,1.284,0,0,0-1.176.613,3.891,3.891,0,0,0-.4,1.918v2.766a4.365,4.365,0,0,0,.379,2.066,1.29,1.29,0,0,0,1.215.676,1.268,1.268,0,0,0,1.2-.648A4.26,4.26,0,0,0,68.5,12.7Zm4.461,9.852-1.18-.617.281-.508a4.059,4.059,0,0,0,.539-1.9v-1.75h1.906L74.5,16.641a4.059,4.059,0,0,1-.437,1.75A4.486,4.486,0,0,1,72.961,19.852ZM83.844,12.3a5.763,5.763,0,0,1-.977,3.609,3.9,3.9,0,0,1-5.7.023,5.594,5.594,0,0,1-1.008-3.516V10.32A5.687,5.687,0,0,1,77.145,6.7a3.91,3.91,0,0,1,5.691-.012A5.576,5.576,0,0,1,83.844,10.2ZM81.586,10A4.158,4.158,0,0,0,81.2,7.941,1.307,1.307,0,0,0,79.992,7.3a1.284,1.284,0,0,0-1.176.613,3.891,3.891,0,0,0-.4,1.918v2.766a4.365,4.365,0,0,0,.379,2.066,1.29,1.29,0,0,0,1.215.676,1.268,1.268,0,0,0,1.2-.648,4.26,4.26,0,0,0,.383-1.984Zm11.578,7h-7.8V15.453l3.68-3.922a9.078,9.078,0,0,0,1.121-1.445,2.322,2.322,0,0,0,.363-1.172,1.738,1.738,0,0,0-.383-1.191,1.382,1.382,0,0,0-1.094-.434,1.49,1.49,0,0,0-1.207.527A2.089,2.089,0,0,0,87.406,9.2H85.141a3.729,3.729,0,0,1,.5-1.9,3.5,3.5,0,0,1,1.4-1.348,4.262,4.262,0,0,1,2.055-.488,4.036,4.036,0,0,1,2.73.844A2.985,2.985,0,0,1,92.8,8.7a3.825,3.825,0,0,1-.437,1.719,9.551,9.551,0,0,1-1.5,2.039L88.273,15.18h4.891Zm1.719-5.594.656-5.781h6.375V7.508H97.391l-.281,2.445a3.58,3.58,0,0,1,1.711-.43,3.279,3.279,0,0,1,2.547,1.008,4.026,4.026,0,0,1,.922,2.82,4.124,4.124,0,0,1-.465,1.973,3.281,3.281,0,0,1-1.332,1.352,4.158,4.158,0,0,1-2.047.48,4.416,4.416,0,0,1-1.914-.418,3.4,3.4,0,0,1-1.395-1.176,3.2,3.2,0,0,1-.543-1.727h2.234a1.669,1.669,0,0,0,.5,1.105,1.573,1.573,0,0,0,1.113.395,1.388,1.388,0,0,0,1.18-.551,2.551,2.551,0,0,0,.414-1.559,2.11,2.11,0,0,0-.477-1.484,1.749,1.749,0,0,0-1.352-.516,1.954,1.954,0,0,0-1.3.422l-.219.2Zm12.828,1.148a11.377,11.377,0,0,1-.508,3.4,9.225,9.225,0,0,1-1.461,2.883,5.263,5.263,0,0,1-2.039,1.719l-.437-1.2a5.494,5.494,0,0,0,1.75-2.578,11.939,11.939,0,0,0,.664-4.008v-.414a12.209,12.209,0,0,0-.637-4.117,5.727,5.727,0,0,0-1.777-2.672l.438-1.2a5.265,5.265,0,0,1,2,1.672,9.106,9.106,0,0,1,1.461,2.82,11.3,11.3,0,0,1,.543,3.336Z" transform="translate(608.5 7002.738)" fill="#12263f"/>
        <line id="Línea_403" data-name="Línea 403" x2="283" transform="translate(524 6996.291)" fill="none" stroke="#a66d58" stroke-width="1"/>
        <g id="Grupo_1111409" data-name="Grupo 1111409" transform="translate(-547 4559.791)">
          <path id="Trazado_900407" data-name="Trazado 900407" d="M0,0H174V22H0Z" transform="translate(832 2483)" fill="#dee4f0"/>
          <path id="Trazado_900949" data-name="Trazado 900949" d="M6.17,9.918H2.292V14H1.073V4.758H6.8v1H2.292V8.922H6.17Zm6,3.4a2.494,2.494,0,0,1-2.012.806,2.135,2.135,0,0,1-1.673-.638A2.761,2.761,0,0,1,7.909,11.6V7.132H9.083v4.437q0,1.562,1.27,1.562a1.758,1.758,0,0,0,1.79-1v-5h1.174V14H12.2Zm5.776.806a3,3,0,0,1-2.272-.917,3.4,3.4,0,0,1-.876-2.453v-.216a4.121,4.121,0,0,1,.39-1.825,3.045,3.045,0,0,1,1.092-1.257A2.745,2.745,0,0,1,17.805,7a2.572,2.572,0,0,1,2.082.882,3.82,3.82,0,0,1,.743,2.526V10.9H15.977a2.441,2.441,0,0,0,.594,1.641,1.866,1.866,0,0,0,1.444.625,2.045,2.045,0,0,0,1.054-.254,2.648,2.648,0,0,0,.755-.673l.717.559A2.884,2.884,0,0,1,17.951,14.127ZM17.805,7.97a1.566,1.566,0,0,0-1.193.517,2.515,2.515,0,0,0-.6,1.45h3.44V9.849a2.237,2.237,0,0,0-.482-1.387A1.475,1.475,0,0,0,17.805,7.97ZM23.1,7.132,23.137,8A2.5,2.5,0,0,1,25.194,7q2.177,0,2.2,2.457V14H26.216V9.455a1.581,1.581,0,0,0-.34-1.1A1.361,1.361,0,0,0,24.838,8a1.7,1.7,0,0,0-1,.3,2.069,2.069,0,0,0-.673.8V14H21.988V7.132Zm7.655-1.663V7.132h1.282V8.04H30.754V12.3a.951.951,0,0,0,.171.619.722.722,0,0,0,.584.206,2.843,2.843,0,0,0,.559-.076V14a3.4,3.4,0,0,1-.9.127,1.462,1.462,0,0,1-1.187-.476,2.045,2.045,0,0,1-.4-1.352V8.04H28.33V7.132h1.25V5.469Zm5.5,8.658a3,3,0,0,1-2.272-.917,3.4,3.4,0,0,1-.876-2.453v-.216a4.121,4.121,0,0,1,.39-1.825,3.045,3.045,0,0,1,1.092-1.257A2.745,2.745,0,0,1,36.112,7a2.572,2.572,0,0,1,2.082.882,3.82,3.82,0,0,1,.743,2.526V10.9H34.284a2.441,2.441,0,0,0,.594,1.641,1.866,1.866,0,0,0,1.444.625,2.045,2.045,0,0,0,1.054-.254,2.648,2.648,0,0,0,.755-.673l.717.559A2.884,2.884,0,0,1,36.258,14.127ZM36.112,7.97a1.566,1.566,0,0,0-1.193.517,2.515,2.515,0,0,0-.6,1.45h3.44V9.849a2.237,2.237,0,0,0-.482-1.387A1.475,1.475,0,0,0,36.112,7.97Zm4.145,5.415a.735.735,0,0,1,.181-.508.689.689,0,0,1,.543-.2.71.71,0,0,1,.549.2.721.721,0,0,1,.187.508.681.681,0,0,1-.187.489.723.723,0,0,1-.549.2.653.653,0,0,1-.724-.686Zm.006-5.6a.735.735,0,0,1,.181-.508.689.689,0,0,1,.543-.2.71.71,0,0,1,.549.2.721.721,0,0,1,.187.508.681.681,0,0,1-.187.489.723.723,0,0,1-.549.2.653.653,0,0,1-.724-.686ZM52.978,5.761H50.007V14H48.794V5.761H45.83v-1h7.147Zm4.037,8.366a3,3,0,0,1-2.272-.917,3.4,3.4,0,0,1-.876-2.453v-.216a4.121,4.121,0,0,1,.39-1.825,3.045,3.045,0,0,1,1.092-1.257A2.745,2.745,0,0,1,56.869,7a2.572,2.572,0,0,1,2.082.882,3.82,3.82,0,0,1,.743,2.526V10.9H55.041a2.441,2.441,0,0,0,.594,1.641,1.866,1.866,0,0,0,1.444.625,2.045,2.045,0,0,0,1.054-.254,2.648,2.648,0,0,0,.755-.673l.717.559A2.884,2.884,0,0,1,57.015,14.127ZM56.869,7.97a1.566,1.566,0,0,0-1.193.517,2.515,2.515,0,0,0-.6,1.45h3.44V9.849a2.237,2.237,0,0,0-.482-1.387A1.475,1.475,0,0,0,56.869,7.97ZM62.328,14H61.153V4.25h1.174Zm3.155,0H64.308V4.25h1.174Zm1.568-3.5a4.057,4.057,0,0,1,.4-1.815,2.96,2.96,0,0,1,1.1-1.244A3.007,3.007,0,0,1,70.167,7a2.9,2.9,0,0,1,2.269.971A3.736,3.736,0,0,1,73.3,10.56v.083a4.092,4.092,0,0,1-.384,1.8,2.916,2.916,0,0,1-1.1,1.241,3.041,3.041,0,0,1-1.641.444,2.889,2.889,0,0,1-2.263-.971,3.718,3.718,0,0,1-.866-2.571Zm1.181.14a2.938,2.938,0,0,0,.53,1.834,1.8,1.8,0,0,0,2.841-.01,3.213,3.213,0,0,0,.527-1.965,2.933,2.933,0,0,0-.536-1.831,1.705,1.705,0,0,0-1.425-.7,1.686,1.686,0,0,0-1.4.692A3.189,3.189,0,0,0,68.231,10.642Zm6.506,5.2-.667-.457a3.063,3.063,0,0,0,.622-1.714V12.61h1.149v.92a2.891,2.891,0,0,1-.314,1.282A3,3,0,0,1,74.737,15.841ZM81.955,13h4.38v1h-5.6V4.758h1.225Zm5.611.381a.735.735,0,0,1,.181-.508.689.689,0,0,1,.543-.2.71.71,0,0,1,.549.2.721.721,0,0,1,.187.508.681.681,0,0,1-.187.489.723.723,0,0,1-.549.2.653.653,0,0,1-.724-.686Zm6.8.616V4.758h3.021a3.507,3.507,0,0,1,2.263.622,2.242,2.242,0,0,1,.759,1.841,1.877,1.877,0,0,1-.368,1.146,2.387,2.387,0,0,1-1,.771,2.143,2.143,0,0,1,1.184.8,2.286,2.286,0,0,1,.435,1.4,2.472,2.472,0,0,1-.806,1.955A3.334,3.334,0,0,1,97.57,14Zm1.219-4.323V13H97.6a1.938,1.938,0,0,0,1.343-.441,1.549,1.549,0,0,0,.492-1.216q0-1.669-1.815-1.669Zm0-.978h1.841A1.932,1.932,0,0,0,98.7,8.3a1.339,1.339,0,0,0,.479-1.085,1.317,1.317,0,0,0-.444-1.108,2.186,2.186,0,0,0-1.352-.346h-1.8Zm6.716,4.685a.735.735,0,0,1,.181-.508.689.689,0,0,1,.543-.2.71.71,0,0,1,.549.2.721.721,0,0,1,.187.508.681.681,0,0,1-.187.489.723.723,0,0,1-.549.2.653.653,0,0,1-.724-.686Zm6.57-3.136a9.814,9.814,0,0,1,.384-2.755,8,8,0,0,1,1.146-2.4,4.874,4.874,0,0,1,1.581-1.523l.241.774a5.056,5.056,0,0,0-1.52,2.171,9.411,9.411,0,0,0-.651,3.269l-.006.54a9.46,9.46,0,0,0,.9,4.253,5.079,5.079,0,0,0,1.282,1.688l-.241.717a5.031,5.031,0,0,1-1.612-1.574A8.823,8.823,0,0,1,108.869,10.249ZM119.292,14h-6.056v-.844l3.2-3.555a7.6,7.6,0,0,0,.981-1.311,2.188,2.188,0,0,0,.27-1.044,1.658,1.658,0,0,0-.438-1.187A1.531,1.531,0,0,0,116.08,5.6a1.814,1.814,0,0,0-1.362.5,1.9,1.9,0,0,0-.486,1.387h-1.174a2.726,2.726,0,0,1,.822-2.063,3.047,3.047,0,0,1,2.2-.787,2.928,2.928,0,0,1,2.038.676,2.306,2.306,0,0,1,.749,1.8,5.287,5.287,0,0,1-1.739,3.25l-2.476,2.685h4.64Zm7.04-3.942a5.371,5.371,0,0,1-.7,3.066,2.928,2.928,0,0,1-4.393.022,5.1,5.1,0,0,1-.736-2.929V8.649a5.251,5.251,0,0,1,.7-3.028,2.98,2.98,0,0,1,4.405-.035,5.068,5.068,0,0,1,.724,2.948Zm-1.174-1.606a4.3,4.3,0,0,0-.419-2.174,1.442,1.442,0,0,0-1.327-.682,1.423,1.423,0,0,0-1.314.679,4.2,4.2,0,0,0-.425,2.088v1.879a4.372,4.372,0,0,0,.435,2.212,1.439,1.439,0,0,0,1.317.714,1.42,1.42,0,0,0,1.292-.673,4.214,4.214,0,0,0,.441-2.12ZM131.695,14h-1.181V6.173l-2.368.87V5.977l3.364-1.263h.184Zm7.941-4.062a2.873,2.873,0,0,1-.879.7,2.385,2.385,0,0,1-1.12.267,2.463,2.463,0,0,1-1.393-.394,2.558,2.558,0,0,1-.917-1.108A3.776,3.776,0,0,1,135,7.83a3.847,3.847,0,0,1,.352-1.669,2.588,2.588,0,0,1,1-1.136,2.851,2.851,0,0,1,1.511-.394,2.581,2.581,0,0,1,2.161,1.025,4.471,4.471,0,0,1,.79,2.8v.343a5.974,5.974,0,0,1-1.066,3.939,4.1,4.1,0,0,1-3.218,1.273H136.3v-.99h.248a3.229,3.229,0,0,0,2.234-.759A3.259,3.259,0,0,0,139.636,9.938Zm-1.809,0a1.813,1.813,0,0,0,1.089-.362,2.133,2.133,0,0,0,.727-.9v-.47a3.232,3.232,0,0,0-.5-1.879,1.533,1.533,0,0,0-2.514-.13,2.448,2.448,0,0,0-.47,1.565,2.548,2.548,0,0,0,.454,1.558A1.437,1.437,0,0,0,137.827,9.938Zm7.439.375a9.819,9.819,0,0,1-.371,2.714,8.024,8.024,0,0,1-1.136,2.4,4.978,4.978,0,0,1-1.6,1.562l-.248-.717a5.1,5.1,0,0,0,1.571-2.326,10.065,10.065,0,0,0,.606-3.5v-.2a10.449,10.449,0,0,0-.279-2.479,8.366,8.366,0,0,0-.778-2.053,4.743,4.743,0,0,0-1.12-1.416l.248-.717a4.959,4.959,0,0,1,1.6,1.549,8.041,8.041,0,0,1,1.136,2.393A10.045,10.045,0,0,1,145.266,10.312Zm1.834,3.072a.735.735,0,0,1,.181-.508.689.689,0,0,1,.543-.2.71.71,0,0,1,.549.2.721.721,0,0,1,.187.508.682.682,0,0,1-.187.489.723.723,0,0,1-.549.2.653.653,0,0,1-.724-.686Z" transform="translate(842 2487)" fill="#12263f"/>
        </g>
      </g>
    </g>
  </g>
</svg>
